<svg width="155" height="42" viewBox="0 0 155 42" fill="none" xmlns="http://www.w3.org/2000/svg">
<path d="M0.261364 18.4545C0.261364 14.875 0.725379 11.5843 1.65341 8.58239C2.59091 5.57102 3.92614 2.80114 5.65909 0.272725H8.61364C7.93182 1.21023 7.29261 2.36553 6.69602 3.73864C6.1089 5.10227 5.5928 6.60322 5.14773 8.24148C4.70265 9.87026 4.35227 11.5559 4.09659 13.2983C3.85038 15.0407 3.72727 16.7595 3.72727 18.4545C3.72727 20.7083 3.94508 22.9953 4.38068 25.3153C4.81629 27.6354 5.40341 29.7898 6.14205 31.7784C6.88068 33.767 7.70455 35.3864 8.61364 36.6364H5.65909C3.92614 34.108 2.59091 31.3428 1.65341 28.3409C0.725379 25.3295 0.261364 22.0341 0.261364 18.4545ZM14.0149 33V3.90909H24.1854C26.2119 3.90909 27.8833 4.25947 29.1996 4.96023C30.5159 5.65151 31.496 6.58428 32.1399 7.75852C32.7839 8.92329 33.1058 10.2159 33.1058 11.6364C33.1058 12.8864 32.8833 13.9186 32.4382 14.733C32.0026 15.5473 31.425 16.1913 30.7053 16.6648C29.995 17.1383 29.2232 17.4886 28.3899 17.7159V18C29.2801 18.0568 30.175 18.3693 31.0746 18.9375C31.9742 19.5057 32.727 20.3201 33.3331 21.3807C33.9392 22.4413 34.2422 23.7386 34.2422 25.2727C34.2422 26.7311 33.9107 28.0426 33.2479 29.2074C32.585 30.3722 31.5386 31.2955 30.1087 31.9773C28.6787 32.6591 26.8179 33 24.5263 33H14.0149ZM17.5376 29.875H24.5263C26.8274 29.875 28.4609 29.4299 29.4268 28.5398C30.4022 27.6402 30.8899 26.5511 30.8899 25.2727C30.8899 24.2879 30.639 23.3788 30.1371 22.5455C29.6352 21.7027 28.9202 21.0303 27.9922 20.5284C27.0642 20.017 25.9657 19.7614 24.6967 19.7614H17.5376V29.875ZM17.5376 16.6932H24.0717C25.1323 16.6932 26.0888 16.4848 26.9411 16.0682C27.8028 15.6515 28.4846 15.0644 28.9865 14.3068C29.4979 13.5492 29.7536 12.6591 29.7536 11.6364C29.7536 10.358 29.3085 9.27367 28.4183 8.38352C27.5282 7.4839 26.1172 7.03409 24.1854 7.03409H17.5376V16.6932ZM46.7351 18.4545C46.7351 22.0341 46.2663 25.3295 45.3288 28.3409C44.4008 31.3428 43.0703 34.108 41.3374 36.6364H38.3828C39.0646 35.6989 39.6991 34.5436 40.2862 33.1705C40.8828 31.8068 41.4036 30.3106 41.8487 28.6818C42.2938 27.0436 42.6394 25.3532 42.8857 23.6108C43.1413 21.8589 43.2692 20.1402 43.2692 18.4545C43.2692 16.2008 43.0514 13.9138 42.6158 11.5938C42.1802 9.27367 41.593 7.11932 40.8544 5.13068C40.1158 3.14205 39.2919 1.52273 38.3828 0.272725H41.3374C43.0703 2.80114 44.4008 5.57102 45.3288 8.58239C46.2663 11.5843 46.7351 14.875 46.7351 18.4545ZM65.7727 33V3.90909H69.2955V29.875H82.8182V33H65.7727ZM96.6818 33.4545C94.7121 33.4545 92.9839 32.9858 91.4972 32.0483C90.0199 31.1108 88.8646 29.7992 88.0312 28.1136C87.2074 26.428 86.7955 24.4583 86.7955 22.2045C86.7955 19.9318 87.2074 17.9479 88.0312 16.2528C88.8646 14.5578 90.0199 13.2415 91.4972 12.304C92.9839 11.3665 94.7121 10.8977 96.6818 10.8977C98.6515 10.8977 100.375 11.3665 101.852 12.304C103.339 13.2415 104.494 14.5578 105.318 16.2528C106.152 17.9479 106.568 19.9318 106.568 22.2045C106.568 24.4583 106.152 26.428 105.318 28.1136C104.494 29.7992 103.339 31.1108 101.852 32.0483C100.375 32.9858 98.6515 33.4545 96.6818 33.4545ZM96.6818 30.4432C98.178 30.4432 99.4091 30.0597 100.375 29.2926C101.341 28.5256 102.056 27.517 102.52 26.267C102.984 25.017 103.216 23.6629 103.216 22.2045C103.216 20.7462 102.984 19.3873 102.52 18.1278C102.056 16.8684 101.341 15.8504 100.375 15.0739C99.4091 14.2973 98.178 13.9091 96.6818 13.9091C95.1856 13.9091 93.9545 14.2973 92.9886 15.0739C92.0227 15.8504 91.3078 16.8684 90.8438 18.1278C90.3797 19.3873 90.1477 20.7462 90.1477 22.2045C90.1477 23.6629 90.3797 25.017 90.8438 26.267C91.3078 27.517 92.0227 28.5256 92.9886 29.2926C93.9545 30.0597 95.1856 30.4432 96.6818 30.4432ZM120.492 41.6364C118.873 41.6364 117.481 41.428 116.316 41.0114C115.151 40.6042 114.181 40.0644 113.404 39.392C112.637 38.7292 112.026 38.0189 111.572 37.2614L114.242 35.3864C114.545 35.7841 114.929 36.2386 115.393 36.75C115.857 37.2708 116.491 37.7206 117.296 38.0994C118.111 38.4877 119.176 38.6818 120.492 38.6818C122.254 38.6818 123.707 38.2557 124.853 37.4034C125.999 36.5511 126.572 35.2159 126.572 33.3977V28.9659H126.288C126.041 29.3636 125.691 29.8561 125.237 30.4432C124.791 31.0208 124.147 31.5369 123.305 31.9915C122.471 32.4366 121.344 32.6591 119.924 32.6591C118.163 32.6591 116.581 32.2424 115.18 31.4091C113.788 30.5758 112.684 29.3636 111.87 27.7727C111.065 26.1818 110.663 24.25 110.663 21.9773C110.663 19.7424 111.056 17.7964 111.842 16.1392C112.628 14.4725 113.721 13.1847 115.123 12.2756C116.524 11.357 118.144 10.8977 119.981 10.8977C121.401 10.8977 122.528 11.1345 123.362 11.608C124.204 12.072 124.848 12.6023 125.293 13.1989C125.748 13.786 126.098 14.2689 126.344 14.6477H126.685V11.1818H129.924V33.625C129.924 35.5 129.498 37.0246 128.646 38.1989C127.803 39.3826 126.666 40.2491 125.237 40.7983C123.816 41.357 122.235 41.6364 120.492 41.6364ZM120.379 29.6477C121.723 29.6477 122.86 29.34 123.788 28.7244C124.716 28.1089 125.421 27.2235 125.904 26.0682C126.387 24.9129 126.629 23.5303 126.629 21.9205C126.629 20.3485 126.392 18.9612 125.918 17.7585C125.445 16.5559 124.744 15.6136 123.816 14.9318C122.888 14.25 121.742 13.9091 120.379 13.9091C118.958 13.9091 117.774 14.2689 116.827 14.9886C115.89 15.7083 115.184 16.6742 114.711 17.8864C114.247 19.0985 114.015 20.4432 114.015 21.9205C114.015 23.4356 114.252 24.7756 114.725 25.9403C115.208 27.0956 115.918 28.0047 116.856 28.6676C117.803 29.321 118.977 29.6477 120.379 29.6477ZM144.924 33.4545C142.954 33.4545 141.226 32.9858 139.739 32.0483C138.262 31.1108 137.107 29.7992 136.273 28.1136C135.45 26.428 135.038 24.4583 135.038 22.2045C135.038 19.9318 135.45 17.9479 136.273 16.2528C137.107 14.5578 138.262 13.2415 139.739 12.304C141.226 11.3665 142.954 10.8977 144.924 10.8977C146.894 10.8977 148.617 11.3665 150.094 12.304C151.581 13.2415 152.737 14.5578 153.56 16.2528C154.394 17.9479 154.81 19.9318 154.81 22.2045C154.81 24.4583 154.394 26.428 153.56 28.1136C152.737 29.7992 151.581 31.1108 150.094 32.0483C148.617 32.9858 146.894 33.4545 144.924 33.4545ZM144.924 30.4432C146.42 30.4432 147.651 30.0597 148.617 29.2926C149.583 28.5256 150.298 27.517 150.762 26.267C151.226 25.017 151.458 23.6629 151.458 22.2045C151.458 20.7462 151.226 19.3873 150.762 18.1278C150.298 16.8684 149.583 15.8504 148.617 15.0739C147.651 14.2973 146.42 13.9091 144.924 13.9091C143.428 13.9091 142.197 14.2973 141.231 15.0739C140.265 15.8504 139.55 16.8684 139.086 18.1278C138.622 19.3873 138.39 20.7462 138.39 22.2045C138.39 23.6629 138.622 25.017 139.086 26.267C139.55 27.517 140.265 28.5256 141.231 29.2926C142.197 30.0597 143.428 30.4432 144.924 30.4432Z" fill="#ECD4D4"/>
</svg>
